<svg width="48" height="48" viewBox="0 0 48 48" fill="none" xmlns="http://www.w3.org/2000/svg">
<path d="M15.3 41.8202C15.24 41.8202 15.16 41.8602 15.1 41.8602C11.22 39.9402 8.06 36.7602 6.12 32.8802C6.12 32.8202 6.16 32.7402 6.16 32.6802C8.6 33.4002 11.12 33.9402 13.62 34.3602C14.06 36.8802 14.58 39.3802 15.3 41.8202Z" fill="#E0E7F9"/>
<path d="M41.88 32.9002C39.9 36.8802 36.6 40.1002 32.58 42.0402C33.34 39.5002 33.98 36.9402 34.4 34.3602C36.92 33.9402 39.4 33.4002 41.84 32.6802C41.82 32.7602 41.88 32.8402 41.88 32.9002Z" fill="#E0E7F9"/>
<path d="M42.04 15.42C39.52 14.66 36.98 14.04 34.4 13.6C33.98 11.02 33.36 8.45996 32.58 5.95996C36.72 7.93996 40.06 11.28 42.04 15.42Z" fill="#E0E7F9"/>
<path d="M15.3 6.18012C14.58 8.62012 14.06 11.1001 13.64 13.6201C11.06 14.0201 8.50002 14.6601 5.96002 15.4201C7.90002 11.4001 11.12 8.10012 15.1 6.12012C15.16 6.12012 15.24 6.18012 15.3 6.18012Z" fill="#E0E7F9"/>
<path d="M30.98 13.18C26.34 12.66 21.66 12.66 17.02 13.18C17.52 10.44 18.16 7.7 19.06 5.06C19.1 4.9 19.08 4.78 19.1 4.62C20.68 4.24 22.3 4 24 4C25.68 4 27.32 4.24 28.88 4.62C28.9 4.78 28.9 4.9 28.94 5.06C29.84 7.72 30.48 10.44 30.98 13.18Z" fill="#E0E7F9"/>
<path d="M13.18 30.98C10.42 30.48 7.7 29.84 5.06 28.94C4.9 28.9 4.78 28.92 4.62 28.9C4.24 27.32 4 25.7 4 24C4 22.32 4.24 20.68 4.62 19.12C4.78 19.1 4.9 19.1 5.06 19.06C7.72 18.18 10.42 17.52 13.18 17.02C12.68 21.66 12.68 26.34 13.18 30.98Z" fill="#E0E7F9"/>
<path d="M44 24C44 25.7 43.76 27.32 43.38 28.9C43.22 28.92 43.1 28.9 42.94 28.94C40.28 29.82 37.56 30.48 34.82 30.98C35.34 26.34 35.34 21.66 34.82 17.02C37.56 17.52 40.3 18.16 42.94 19.06C43.1 19.1 43.22 19.12 43.38 19.12C43.76 20.7 44 22.32 44 24Z" fill="#E0E7F9"/>
<path d="M30.98 34.8198C30.48 37.5798 29.84 40.2998 28.94 42.9398C28.9 43.0998 28.9 43.2198 28.88 43.3798C27.32 43.7598 25.68 43.9998 24 43.9998C22.3 43.9998 20.68 43.7598 19.1 43.3798C19.08 43.2198 19.1 43.0998 19.06 42.9398C18.18 40.2798 17.52 37.5798 17.02 34.8198C19.34 35.0798 21.66 35.2598 24 35.2598C26.34 35.2598 28.68 35.0798 30.98 34.8198Z" fill="#E0E7F9"/>
<path d="M31.5267 31.5267C26.5245 32.1578 21.4755 32.1578 16.4733 31.5267C15.8422 26.5245 15.8422 21.4755 16.4733 16.4733C21.4755 15.8422 26.5245 15.8422 31.5267 16.4733C32.1578 21.4755 32.1578 26.5245 31.5267 31.5267Z" fill="#E0E7F9"/>
</svg>
