<svg width="37" height="50" viewBox="0 0 37 50" fill="none" xmlns="http://www.w3.org/2000/svg">
<path d="M18.4998 33.616C21.1735 33.6199 24.1586 34.5251 26.4656 36.0964C28.774 37.6688 30.3337 39.8537 30.3337 42.405V47.5632L30.324 47.7019C30.3046 47.8395 30.2565 47.9726 30.1824 48.0925C30.0836 48.2524 29.9415 48.3828 29.7712 48.4695C29.6433 48.5346 29.5032 48.5735 29.3601 48.5828L29.2166 48.5818C29.0247 48.5682 28.841 48.5028 28.6853 48.3933L28.6687 48.3816L28.6501 48.3708L23.8132 45.533C20.6352 43.6686 16.7209 43.6103 13.4968 45.3582L13.1873 45.533L8.34937 48.3708L8.33179 48.3816L8.31519 48.3933C8.19834 48.4755 8.06552 48.533 7.92554 48.5623L7.78296 48.5818C7.59109 48.5953 7.39961 48.5562 7.22925 48.4695C7.05897 48.3828 6.91696 48.2524 6.81812 48.0925C6.71935 47.9327 6.66693 47.7495 6.66675 47.5632V42.405C6.66678 39.8538 8.22571 37.6688 10.5339 36.0964C12.8407 34.5252 15.8261 33.62 18.4998 33.616Z" fill="url(#paint0_radial_289_360)" stroke="black"/>
<path d="M18.5 0.869629C23.1267 0.869629 27.5685 2.62801 30.9102 5.76807L31.2305 6.07568C34.6054 9.40842 36.5 13.9277 36.5 18.6382C36.5 23.2015 34.7215 27.5848 31.542 30.8843L31.2305 31.1997C27.8553 34.5327 23.2759 36.4067 18.5 36.4067C13.8733 36.4067 9.43149 34.6483 6.08984 31.5083L5.76953 31.1997C2.39481 27.867 0.500012 23.3484 0.5 18.6382C0.5 14.0749 2.27847 9.69156 5.45801 6.39209L5.76953 6.07568C9.14471 2.74277 13.7241 0.869629 18.5 0.869629Z" fill="url(#paint1_radial_289_360)" stroke="black"/>
<path d="M18.5156 10.0039L18.5391 10.0107L18.5527 10.0254L20.7598 14.7529V14.7539L20.7646 14.7627C20.8225 14.8806 20.9019 14.9862 20.998 15.0742L21.0986 15.1562C21.2053 15.2321 21.3252 15.2873 21.4512 15.3193L21.5791 15.3428L21.584 15.3438L26.8184 15.958V15.959C26.8269 15.9601 26.8342 15.9633 26.8398 15.9678L26.8506 15.9824C26.8522 15.9874 26.8529 15.9931 26.8516 15.998L26.8418 16.0127L22.9727 19.5479L22.9678 19.5518C22.8722 19.6415 22.7943 19.7483 22.7383 19.8662L22.6895 19.9883C22.6485 20.1129 22.6321 20.2438 22.6396 20.374L22.6553 20.5049L22.6562 20.5117L23.6826 25.6162V25.6172C23.684 25.6243 23.6837 25.6286 23.6836 25.6299C23.6834 25.6311 23.6831 25.6327 23.6826 25.6338C23.6812 25.6368 23.6777 25.6428 23.6699 25.6484C23.6614 25.6546 23.6524 25.6568 23.6465 25.6572L23.623 25.6514V25.6504L19.0195 23.1084L19.0117 23.1045L18.8936 23.0508C18.7731 23.0049 18.6451 22.9815 18.5156 22.9814C18.3859 22.9814 18.2573 23.0047 18.1367 23.0508L18.0195 23.1035L18.0117 23.1084L13.4082 25.6504C13.4012 25.6543 13.3927 25.6568 13.3838 25.6562L13.3613 25.6484C13.3552 25.6441 13.3507 25.6379 13.3486 25.6328L13.3477 25.6182L14.3779 20.5117L14.3789 20.5049C14.411 20.3325 14.3985 20.1548 14.3438 19.9883C14.3026 19.8634 14.2386 19.7479 14.1553 19.6475L14.0664 19.5518L14.0605 19.5469L10.1885 16.0127H10.1895L10.1797 15.998V15.9824C10.1814 15.9775 10.185 15.9723 10.1904 15.9678C10.1961 15.9631 10.2041 15.96 10.2129 15.959L10.2119 15.958L15.4502 15.3438L15.458 15.3428C15.6297 15.3199 15.7935 15.2553 15.9346 15.1543C16.0403 15.0786 16.1311 14.9843 16.2021 14.876L16.2666 14.7627L16.2705 14.7539L18.4785 10.0254L18.4912 10.0107L18.5156 10.0039Z" fill="url(#paint2_radial_289_360)" stroke="black"/>
<defs>
<radialGradient id="paint0_radial_289_360" cx="0" cy="0" r="1" gradientUnits="userSpaceOnUse" gradientTransform="translate(18.5001 26.2073) rotate(90) scale(31.1911 54.4489)">
<stop stop-color="#163697"/>
<stop offset="1" stop-color="#29C3FF"/>
</radialGradient>
<radialGradient id="paint1_radial_289_360" cx="0" cy="0" r="1" gradientUnits="userSpaceOnUse" gradientTransform="translate(-79.9479 -127.51) rotate(56.2827) scale(204.726 176.2)">
<stop offset="0.772" stop-color="#FFCD0F"/>
<stop offset="0.991" stop-color="#E67505"/>
</radialGradient>
<radialGradient id="paint2_radial_289_360" cx="0" cy="0" r="1" gradientUnits="userSpaceOnUse" gradientTransform="translate(22.9338 26.1584) rotate(-106.871) scale(30.4553 44.4283)">
<stop stop-color="#B03111"/>
<stop offset="1" stop-color="#E67505"/>
</radialGradient>
</defs>
</svg>
