<svg width="88" height="60" viewBox="0 0 88 60" fill="none" xmlns="http://www.w3.org/2000/svg">
<path d="M30.4059 31.4793C30.4059 22.6276 37.4128 15.4519 46.0567 15.4519H47.2161C55.86 15.4519 62.8669 22.6276 62.8669 31.4793C62.8669 40.331 55.86 47.5067 47.2161 47.5067H46.0567C37.4128 47.5067 30.4059 40.331 30.4059 31.4793Z" stroke="#E0E7F9" stroke-width="1.5" stroke-linecap="round" stroke-linejoin="round"/>
<path d="M47.7958 38.3482V26.781C47.7958 25.4667 47.7958 24.8073 47.2625 24.6448C46.087 24.2853 44.3178 26.8978 44.3178 26.8978M47.7958 38.3482L44.3178 38.3459M47.7958 38.3482L51.2738 38.3459M50.2536 1.71411L44.3178 15.2184M60.5483 1.71411L54.0074 16.5967M43.0194 1.71411L46.6365 9.94305M32.7246 1.71411L39.2655 16.5967" stroke="#E0E7F9" stroke-width="1.5" stroke-linecap="round" stroke-linejoin="round"/>
<path d="M1 41.358C1 34.6151 6.33764 29.1489 12.9223 29.1489H13.8054C20.39 29.1489 25.7277 34.6151 25.7277 41.358C25.7277 48.101 20.39 53.5672 13.8054 53.5672H12.9223C6.33764 53.5672 1 48.101 1 41.358Z" stroke="#E0E7F9" stroke-width="1.5" stroke-linecap="round" stroke-linejoin="round"/>
<path d="M10.7144 38.0757C10.8557 36.7065 11.7883 36.1257 12.7597 36.1257H13.9361C14.9075 36.1257 15.8383 36.7065 15.9796 38.0757C16.0227 38.5188 16.0227 38.965 15.9796 39.4082C15.8931 40.2419 14.8722 41.1995 14.8722 41.1995L13.3638 42.2302C13.3638 42.2302 10.7144 43.9744 10.7144 45.7186C10.7144 46.6604 11.4863 46.5907 12.44 46.5907H15.9796M16.1192 18.6841L11.5975 28.9711M23.9614 18.6841L18.9787 30.0211M10.6084 18.6841L13.3638 24.9526M2.76624 18.6841L7.74886 30.0211" stroke="#E0E7F9" stroke-width="1.5" stroke-linecap="round" stroke-linejoin="round"/>
<path d="M67.6406 49.3922C67.6406 44.1854 71.7624 39.9644 76.847 39.9644H77.529C82.6136 39.9644 86.7353 44.1854 86.7353 49.3922C86.7353 54.5991 82.6136 58.8201 77.529 58.8201H76.847C71.7624 58.8201 67.6406 54.5991 67.6406 49.3922Z" stroke="#E0E7F9" stroke-width="1.5" stroke-linecap="round" stroke-linejoin="round"/>
<path d="M75.1421 46.8575C75.2512 45.8002 75.97 45.3517 76.7215 45.3517H77.6299C78.38 45.3517 79.0988 45.8002 79.2079 46.8575C79.2412 47.1997 79.2412 47.5443 79.2079 47.8865C79.1179 48.7592 78.5123 49.3922 77.8576 49.3922M77.8576 49.3922C78.5123 49.3922 79.1179 50.0253 79.2079 50.898C79.2412 51.2402 79.2412 51.5848 79.2079 51.927C79.0988 52.9843 78.38 53.4328 77.6299 53.4328H76.7215C75.97 53.4328 75.2512 52.9843 75.1421 51.927M77.8576 49.3922H77.7758M79.3157 31.8833L75.8241 39.827M85.3714 31.8833L81.5238 40.6378M75.0603 31.8833L77.188 36.7239M69.0045 31.8833L72.8521 40.6378" stroke="#E0E7F9" stroke-width="1.5" stroke-linecap="round" stroke-linejoin="round"/>
</svg>
