<svg width="50" height="49" viewBox="0 0 50 49" fill="none" xmlns="http://www.w3.org/2000/svg">
<path d="M21.2125 20.1863C22.4199 19.0242 24.0305 18.3751 25.7062 18.3751C27.382 18.3751 28.9925 19.0242 30.1999 20.1863C30.5908 20.5459 31.1065 20.739 31.6374 20.7247C32.1683 20.7103 32.6728 20.4896 33.0437 20.1094C33.4146 19.7292 33.6227 19.2195 33.6239 18.6883C33.6251 18.1572 33.4193 17.6465 33.0501 17.2646C28.9872 13.3018 22.4212 13.3018 18.3603 17.2646C17.3897 18.2032 16.6178 19.3275 16.0907 20.5706C15.5635 21.8137 15.2919 23.1501 15.2919 24.5003C15.2919 25.8505 15.5635 27.1869 16.0907 28.43C16.6178 29.6731 17.3897 30.7974 18.3603 31.736C22.4232 35.6988 28.9892 35.6988 33.0501 31.736C33.4193 31.3541 33.6251 30.8434 33.6239 30.3123C33.6227 29.7811 33.4146 29.2714 33.0437 28.8912C32.6728 28.511 32.1683 28.2903 31.6374 28.2759C31.1065 28.2616 30.5908 28.4547 30.1999 28.8143C28.9925 29.977 27.3814 30.6265 25.7052 30.6265C24.029 30.6265 22.418 29.977 21.2105 28.8143C20.6294 28.2561 20.167 27.5862 19.8512 26.8449C19.5354 26.1036 19.3726 25.3061 19.3726 24.5003C19.3726 23.6945 19.5354 22.897 19.8512 22.1557C20.167 21.4144 20.6314 20.7445 21.2125 20.1863Z" fill="white"/>
<path d="M28.3257 5.04311C26.4892 4.44657 24.5109 4.44657 22.6744 5.04311C21.2309 5.51065 19.9998 6.45798 18.5767 7.78507C16.6331 7.85448 15.0916 8.05457 13.738 8.74465C12.0181 9.62089 10.6196 11.0187 9.74245 12.7382C9.05441 14.0918 8.85433 15.6332 8.78491 17.5769C7.45783 18.9999 6.5105 20.2311 6.04091 21.6745C5.44437 23.5111 5.44437 25.4893 6.04091 27.3259C6.5105 28.7693 7.45783 30.0004 8.78491 31.4235C8.85433 33.3671 9.05441 34.9086 9.7445 36.2622C10.6207 37.9821 12.0186 39.3807 13.738 40.2578C15.0916 40.9458 16.6331 41.1459 18.5767 41.2153C19.9998 42.5424 21.2309 43.4897 22.6744 43.9593C24.5119 44.5555 26.4882 44.5555 28.3257 43.9593C29.7692 43.4897 31.0003 42.5424 32.4233 41.2153C34.367 41.1459 35.9085 40.9458 37.2621 40.2557C38.9819 39.3795 40.3805 37.9816 41.2576 36.2622C41.9457 34.9086 42.1457 33.3671 42.2152 31.4235C43.5422 30.0004 44.4896 28.7693 44.9592 27.3259C45.5553 25.4884 45.5553 23.512 44.9592 21.6745C44.4896 20.2311 43.5422 18.9999 42.2152 17.5769C42.1457 15.6332 41.9457 14.0918 41.2556 12.7382C40.3793 11.0183 38.9815 9.61972 37.2621 8.74261C35.9085 8.05457 34.367 7.85448 32.4233 7.78507C31.0003 6.45798 29.7692 5.51269 28.3257 5.04311ZM23.6217 7.95248C24.8426 7.55621 26.1575 7.55621 27.3784 7.95248C28.244 8.23219 29.1362 8.87328 30.739 10.4025L31.1677 10.8149L31.7598 10.8272C33.977 10.8782 35.0612 11.0579 35.8717 11.4703C37.016 12.0522 37.946 12.9822 38.5279 14.1265C38.9403 14.937 39.12 16.0212 39.171 18.2364L39.1833 18.8284L39.5937 19.2592C41.1249 20.8619 41.766 21.7542 42.0457 22.6198C42.442 23.8407 42.442 25.1556 42.0457 26.3765C41.766 27.2421 41.1249 28.1344 39.5957 29.7371L39.1833 30.1658L39.171 30.7579C39.12 32.9751 38.9403 34.0593 38.5279 34.8698C37.9448 36.0132 37.0151 36.943 35.8717 37.526C35.0612 37.9405 33.977 38.1181 31.7618 38.1691L31.1697 38.1814L30.739 38.5918C29.1362 40.123 28.244 40.7641 27.3784 41.0438C26.1575 41.4401 24.8426 41.4401 23.6217 41.0438C22.756 40.7641 21.8638 40.123 20.2611 38.5938L19.8324 38.1814L19.2403 38.1691C17.023 38.1181 15.9389 37.9384 15.1284 37.526C13.986 36.9431 13.0571 36.0142 12.4742 34.8719C12.0618 34.0613 11.8821 32.9772 11.8311 30.762L11.8188 30.1699L11.4085 29.7391C9.8772 28.1364 9.23612 27.2442 8.95641 26.3785C8.56014 25.1577 8.56014 23.8427 8.95641 22.6219C9.23612 21.7562 9.8772 20.864 11.4064 19.2613L11.8188 18.8325L11.8311 18.2404C11.8821 16.0232 12.0618 14.9391 12.4742 14.1285C13.0571 12.9862 13.986 12.0572 15.1284 11.4744C15.9389 11.0619 17.023 10.8823 19.2382 10.8312L19.8303 10.819L20.2611 10.4086C21.8638 8.87736 22.756 8.23628 23.6217 7.95657" fill="white"/>
</svg>
